<svg width="15" height="28" viewBox="0 0 15 28" fill="none" xmlns="http://www.w3.org/2000/svg">
<path d="M2.38636 17.8068V17.1818H6.75V17.8068H4.92045V23H4.21591V17.8068H2.38636ZM7.74645 23V18.6364H8.4169V23H7.74645ZM8.08736 17.9091C7.95668 17.9091 7.84399 17.8646 7.74929 17.7756C7.65649 17.6866 7.61009 17.5795 7.61009 17.4545C7.61009 17.3295 7.65649 17.2225 7.74929 17.1335C7.84399 17.0445 7.95668 17 8.08736 17C8.21804 17 8.32978 17.0445 8.42259 17.1335C8.51728 17.2225 8.56463 17.3295 8.56463 17.4545C8.56463 17.5795 8.51728 17.6866 8.42259 17.7756C8.32978 17.8646 8.21804 17.9091 8.08736 17.9091ZM9.64489 24.6364V18.6364H10.2926V19.3295H10.3722C10.4214 19.2538 10.4896 19.1572 10.5767 19.0398C10.6657 18.9205 10.7926 18.8144 10.9574 18.7216C11.1241 18.6269 11.3494 18.5795 11.6335 18.5795C12.0009 18.5795 12.3248 18.6714 12.6051 18.8551C12.8854 19.0388 13.1042 19.2992 13.2614 19.6364C13.4186 19.9735 13.4972 20.3712 13.4972 20.8295C13.4972 21.2917 13.4186 21.6922 13.2614 22.0312C13.1042 22.3684 12.8864 22.6297 12.608 22.8153C12.3295 22.9991 12.0085 23.0909 11.6449 23.0909C11.3646 23.0909 11.1402 23.0445 10.9716 22.9517C10.803 22.857 10.6733 22.75 10.5824 22.6307C10.4915 22.5095 10.4214 22.4091 10.3722 22.3295H10.3153V24.6364H9.64489ZM10.304 20.8182C10.304 21.1477 10.3523 21.4384 10.4489 21.6903C10.5455 21.9403 10.6866 22.1364 10.8722 22.2784C11.0578 22.4186 11.285 22.4886 11.554 22.4886C11.8343 22.4886 12.0682 22.4148 12.2557 22.267C12.4451 22.1174 12.5871 21.9167 12.6818 21.6648C12.7784 21.411 12.8267 21.1288 12.8267 20.8182C12.8267 20.5114 12.7794 20.2348 12.6847 19.9886C12.5919 19.7405 12.4508 19.5445 12.2614 19.4006C12.0739 19.2547 11.8381 19.1818 11.554 19.1818C11.2813 19.1818 11.0521 19.2509 10.8665 19.3892C10.6809 19.5256 10.5407 19.7169 10.446 19.9631C10.3513 20.2074 10.304 20.4924 10.304 20.8182Z" fill="#122130"/>
<path d="M7.61633 10.3333C9.24089 10.3333 10.5579 9.0275 10.5579 7.41667C10.5579 5.80584 9.24089 4.5 7.61633 4.5C5.99177 4.5 4.6748 5.80584 4.6748 7.41667C4.6748 9.0275 5.99177 10.3333 7.61633 10.3333Z" stroke="black" stroke-linecap="round" stroke-linejoin="round"/>
<path d="M7.61621 1V2.16667" stroke="black" stroke-linecap="round" stroke-linejoin="round"/>
<path d="M7.61621 12.6641V13.8307" stroke="black" stroke-linecap="round" stroke-linejoin="round"/>
<path d="M3.03906 2.87891L3.87446 3.70724" stroke="black" stroke-linecap="round" stroke-linejoin="round"/>
<path d="M11.3584 11.125L12.1938 11.9533" stroke="black" stroke-linecap="round" stroke-linejoin="round"/>
<path d="M1.14453 7.41406H2.32114" stroke="black" stroke-linecap="round" stroke-linejoin="round"/>
<path d="M12.9102 7.41406H14.0868" stroke="black" stroke-linecap="round" stroke-linejoin="round"/>
<path d="M3.03906 11.9533L3.87446 11.125" stroke="black" stroke-linecap="round" stroke-linejoin="round"/>
<path d="M11.3584 3.70724L12.1938 2.87891" stroke="black" stroke-linecap="round" stroke-linejoin="round"/>
</svg>
