<svg width="141" height="27" viewBox="0 0 141 27" fill="none" xmlns="http://www.w3.org/2000/svg">
<path d="M3.03125 13.5938C3.03125 11.1875 3.07292 9.05208 3.15625 7.1875L1.04688 6.85938C0.911458 6.47396 0.807292 6.04688 0.734375 5.57812C0.661458 5.10938 0.625 4.65625 0.625 4.21875C0.625 3.88542 0.651042 3.52083 0.703125 3.125C2.06771 2.64583 3.86979 2.30208 6.10938 2.09375C8.34896 1.88542 10.5365 1.78125 12.6719 1.78125C14.2656 1.78125 15.6354 1.90625 16.7812 2.15625C17.9271 2.40625 18.8854 2.97396 19.6562 3.85938C20.4375 4.73438 20.8281 6.04688 20.8281 7.79688C20.8281 8.51562 20.7135 9.3125 20.4844 10.1875C20.2552 11.0521 19.9375 11.9167 19.5312 12.7812C19.1562 13.5729 18.7292 14.3281 18.25 15.0469C17.7812 15.7552 17.2917 16.3646 16.7812 16.875C17.0833 17.6667 17.3958 18.3906 17.7188 19.0469C18.0417 19.6927 18.5365 20.4792 19.2031 21.4062L21.3906 20.4844C22.2031 21.1823 22.6771 22.1094 22.8125 23.2656C22.8125 23.3281 22.5625 23.625 22.0625 24.1562C21.5729 24.6875 20.9323 25.1823 20.1406 25.6406C19.349 26.0885 18.4583 26.3125 17.4688 26.3125C16.6979 26.3125 16.0052 26.1771 15.3906 25.9062C14.7865 25.6354 14.2865 25.1615 13.8906 24.4844C13.5052 23.8177 13.1979 23.026 12.9688 22.1094C12.7396 21.1927 12.5781 20.2865 12.4844 19.3906L8.92188 19.2344C9.01562 20.0469 9.13542 20.8854 9.28125 21.75C9.42708 22.6042 9.51562 23.1198 9.54688 23.2969C9.72396 24.3281 9.83854 25.0312 9.89062 25.4062C9.41146 25.6979 8.82812 25.9219 8.14062 26.0781C7.46354 26.2344 6.77083 26.3125 6.0625 26.3125C5.25 26.3125 4.46354 26.2031 3.70312 25.9844C3.47396 25.0677 3.30208 23.4635 3.1875 21.1719C3.08333 18.8698 3.03125 16.3438 3.03125 13.5938ZM12.75 15.4688C13.1146 14.4271 13.401 13.2969 13.6094 12.0781C13.8281 10.849 14.026 9.38542 14.2031 7.6875C13.901 7.57292 13.5052 7.48438 13.0156 7.42188C12.526 7.35938 12.0521 7.32812 11.5938 7.32812C10.5521 7.32812 9.77083 7.35417 9.25 7.40625C9.13542 11.3229 9.01042 14.099 8.875 15.7344L12.75 15.4688Z" fill="#2E4970"/>
<path d="M23.5156 16.7656C23.5156 14.8802 23.8177 13.2448 24.4219 11.8594C25.026 10.474 25.9531 9.40104 27.2031 8.64062C28.4531 7.86979 30.0208 7.48438 31.9062 7.48438C33.9896 7.48438 35.625 7.875 36.8125 8.65625C38 9.42708 38.8281 10.5 39.2969 11.875C39.776 13.25 40.0156 14.9323 40.0156 16.9219C40.0156 18.724 39.6979 20.3333 39.0625 21.75C38.4375 23.1562 37.4896 24.2708 36.2188 25.0938C34.9583 25.9062 33.4115 26.3125 31.5781 26.3125C28.7448 26.3125 26.6927 25.4427 25.4219 23.7031C24.151 21.9531 23.5156 19.6406 23.5156 16.7656ZM32.2188 21.7344C32.75 21.7344 33.0729 21.6927 33.1875 21.6094C33.4271 21.1927 33.6094 20.6042 33.7344 19.8438C33.8594 19.0833 33.9219 18.2604 33.9219 17.375C33.9219 16.5625 33.8698 15.8021 33.7656 15.0938C33.6615 14.375 33.5156 13.8125 33.3281 13.4062C33.2135 13.2708 32.9844 13.1719 32.6406 13.1094C32.2969 13.0365 31.9219 13 31.5156 13C30.9844 13 30.6198 13.0573 30.4219 13.1719C29.901 14.0677 29.6406 15.3125 29.6406 16.9062C29.6406 17.6562 29.6979 18.4219 29.8125 19.2031C29.9271 19.9844 30.0729 20.6927 30.25 21.3281C30.375 21.4635 30.6302 21.5677 31.0156 21.6406C31.401 21.7031 31.8021 21.7344 32.2188 21.7344ZM42.1094 16.7656C42.1094 14.8802 42.4115 13.2448 43.0156 11.8594C43.6198 10.474 44.5469 9.40104 45.7969 8.64062C47.0469 7.86979 48.6146 7.48438 50.5 7.48438C52.5833 7.48438 54.2188 7.875 55.4062 8.65625C56.5938 9.42708 57.4219 10.5 57.8906 11.875C58.3698 13.25 58.6094 14.9323 58.6094 16.9219C58.6094 18.724 58.2917 20.3333 57.6562 21.75C57.0312 23.1562 56.0833 24.2708 54.8125 25.0938C53.5521 25.9062 52.0052 26.3125 50.1719 26.3125C47.3385 26.3125 45.2865 25.4427 44.0156 23.7031C42.7448 21.9531 42.1094 19.6406 42.1094 16.7656ZM50.8125 21.7344C51.3438 21.7344 51.6667 21.6927 51.7812 21.6094C52.0208 21.1927 52.2031 20.6042 52.3281 19.8438C52.4531 19.0833 52.5156 18.2604 52.5156 17.375C52.5156 16.5625 52.4635 15.8021 52.3594 15.0938C52.2552 14.375 52.1094 13.8125 51.9219 13.4062C51.8073 13.2708 51.5781 13.1719 51.2344 13.1094C50.8906 13.0365 50.5156 13 50.1094 13C49.5781 13 49.2135 13.0573 49.0156 13.1719C48.4948 14.0677 48.2344 15.3125 48.2344 16.9062C48.2344 17.6562 48.2917 18.4219 48.4062 19.2031C48.5208 19.9844 48.6667 20.6927 48.8438 21.3281C48.9688 21.4635 49.224 21.5677 49.6094 21.6406C49.9948 21.7031 50.3958 21.7344 50.8125 21.7344Z" fill="#2E4970"/>
<path d="M62.1875 20.5625C62.1875 18.8646 62.2083 17.5833 62.25 16.7188C62.2917 15.8438 62.401 14.5625 62.5781 12.875L60.7812 12.6406C60.5625 11.9635 60.4167 11.3594 60.3438 10.8281C60.2812 10.2969 60.25 9.60938 60.25 8.76562C60.4167 8.61979 60.6927 8.44792 61.0781 8.25C61.474 8.04167 61.9375 7.86458 62.4688 7.71875C63.0104 7.5625 63.5573 7.48438 64.1094 7.48438C65.3698 7.48438 66.2604 7.75521 66.7812 8.29688C67.3125 8.83854 67.5781 9.65104 67.5781 10.7344C67.5781 11.3385 67.4896 12.1562 67.3125 13.1875C67.0208 14.8438 66.875 15.7135 66.875 15.7969C66.875 15.849 66.9115 15.901 66.9844 15.9531C67.0573 15.9948 67.1354 16.0156 67.2188 16.0156C67.3125 16.0156 67.375 15.9792 67.4062 15.9062C67.3958 15.9479 67.5156 15.4219 67.7656 14.3281C68.0677 12.8906 68.375 11.7188 68.6875 10.8125C69.0104 9.90625 69.5208 9.13021 70.2188 8.48438C70.9167 7.83854 71.8646 7.51562 73.0625 7.51562C74.5417 7.51562 75.6094 7.94271 76.2656 8.79688C76.9219 9.64062 77.25 10.7656 77.25 12.1719C77.25 13.2865 77.0625 14.526 76.6875 15.8906C76.6875 15.9427 76.724 15.9948 76.7969 16.0469C76.8698 16.0885 76.9479 16.1094 77.0312 16.1094C77.125 16.1094 77.1875 16.0729 77.2188 16L77.4375 15.125C77.8125 13.5833 78.1823 12.3021 78.5469 11.2812C78.9219 10.2604 79.4792 9.38021 80.2188 8.64062C80.9688 7.89062 81.9427 7.51562 83.1406 7.51562C84.7135 7.51562 85.8438 8.02083 86.5312 9.03125C87.2292 10.0417 87.5781 11.3125 87.5781 12.8438C87.5781 13.9271 87.474 15.0156 87.2656 16.1094C87.0677 17.2031 86.8542 18.1198 86.625 18.8594C86.4062 19.599 86.1354 20.4531 85.8125 21.4219L85.8438 21.4531L88.1562 20.4844C88.9688 21.1823 89.4427 22.1094 89.5781 23.2656C89.5781 23.3385 89.3438 23.6406 88.875 24.1719C88.4062 24.6927 87.7865 25.1823 87.0156 25.6406C86.2552 26.0885 85.3802 26.3125 84.3906 26.3125C83.401 26.3125 82.5938 26.0469 81.9688 25.5156C81.3438 24.9844 81.0312 24.0781 81.0312 22.7969C81.0312 21.3698 81.0573 19.9062 81.1094 18.4062C81.1719 16.8958 81.2604 15.5417 81.375 14.3438C81.1979 14.1979 80.9531 14.1198 80.6406 14.1094C80.3281 14.4115 79.9375 15.0729 79.4688 16.0938C79 17.1042 78.5677 18.1875 78.1719 19.3438C77.776 20.4896 77.526 21.3854 77.4219 22.0312C77.5677 23.0521 77.7917 24.0625 78.0938 25.0625C77.9062 25.4167 77.5208 25.7135 76.9375 25.9531C76.3542 26.1927 75.6354 26.3125 74.7812 26.3125C74.0104 26.3125 73.4062 26.25 72.9688 26.125C72.5312 26 72.2292 25.8698 72.0625 25.7344C71.9062 25.599 71.8281 25.5104 71.8281 25.4688C71.8177 25.375 71.7917 25.1302 71.75 24.7344C71.7083 24.3281 71.6667 23.7656 71.625 23.0469C71.5833 22.3177 71.5625 21.4896 71.5625 20.5625C71.5625 19.6771 71.6302 18.5677 71.7656 17.2344C71.776 17.0677 71.8073 16.6719 71.8594 16.0469C71.9115 15.4219 71.9375 14.8542 71.9375 14.3438C71.7604 14.1979 71.5156 14.1198 71.2031 14.1094C71.026 14.2448 70.5312 15.1094 69.7188 16.7031C68.9062 18.2969 68.3646 19.4219 68.0938 20.0781C68.0729 20.224 68.0625 20.3646 68.0625 20.5C68.0625 21.0208 68.1406 21.724 68.2969 22.6094C68.4531 23.4844 68.6458 24.3021 68.875 25.0625C68.6875 25.4167 68.3021 25.7135 67.7188 25.9531C67.1354 26.1927 66.4167 26.3125 65.5625 26.3125C64.7917 26.3125 64.1719 26.25 63.7031 26.125C63.2448 26 62.9219 25.8698 62.7344 25.7344C62.5469 25.5885 62.4531 25.5 62.4531 25.4688C62.4427 25.375 62.4167 25.1302 62.375 24.7344C62.3333 24.3281 62.2917 23.7656 62.25 23.0469C62.2083 22.3177 62.1875 21.4896 62.1875 20.5625ZM95.6094 15.7031C96.224 15.7031 96.901 15.7656 97.6406 15.8906C98.3906 16.0156 99.0781 16.1667 99.7031 16.3438V15.8594C99.7031 15.5365 99.6927 15.1771 99.6719 14.7812C99.6615 14.3854 99.6406 14.125 99.6094 14C99.5156 13.8229 99.2448 13.6406 98.7969 13.4531C98.3594 13.2656 97.6406 13.1719 96.6406 13.1719C96.026 13.1719 95.3906 13.25 94.7344 13.4062C94.0885 13.5521 93.3698 13.75 92.5781 14C92.151 13.2917 91.8073 12.6198 91.5469 11.9844C91.2969 11.3385 91.1719 10.6927 91.1719 10.0469C91.1719 9.84896 91.1875 9.65104 91.2188 9.45312C92.9062 8.14062 95.0885 7.48438 97.7656 7.48438C99.2448 7.48438 100.557 7.65104 101.703 7.98438C102.849 8.31771 103.792 8.96354 104.531 9.92188C105.271 10.8802 105.641 12.2396 105.641 14C105.641 15.7188 105.438 17.3854 105.031 19C104.635 20.6042 104.432 21.4219 104.422 21.4531L106.688 20.4844C106.99 20.8073 107.255 21.2031 107.484 21.6719C107.724 22.1302 107.875 22.6615 107.938 23.2656C107.792 23.5781 107.474 23.9792 106.984 24.4688C106.495 24.9479 105.896 25.375 105.188 25.75C104.479 26.125 103.74 26.3125 102.969 26.3125C102.104 26.3125 101.448 26.0573 101 25.5469C100.562 25.0365 100.344 24.375 100.344 23.5625C100.344 23.1042 100.411 22.6406 100.547 22.1719L100.078 22.0312C99.7865 23.6771 99.1667 24.8021 98.2188 25.4062C97.2708 26.0104 96.224 26.3125 95.0781 26.3125C94.3281 26.3125 93.6042 26.1042 92.9062 25.6875C92.2083 25.2604 91.6406 24.6458 91.2031 23.8438C90.7656 23.0312 90.5469 22.0833 90.5469 21C90.5469 19.2708 90.9792 17.9583 91.8438 17.0625C92.7083 16.1562 93.9635 15.7031 95.6094 15.7031ZM97.3906 21.6562C97.651 21.6042 97.9583 21.4583 98.3125 21.2188C98.6771 20.9792 99 20.6927 99.2812 20.3594C99.5625 20.026 99.7292 19.7083 99.7812 19.4062L99.6875 19.0312C99.1354 18.9583 98.5469 18.9219 97.9219 18.9219C97.3906 18.9219 97.026 18.9635 96.8281 19.0469C96.4948 19.4219 96.3281 19.8385 96.3281 20.2969C96.3281 20.6302 96.4115 20.9323 96.5781 21.2031C96.7552 21.474 97.026 21.625 97.3906 21.6562ZM109.984 17.375C109.984 15.6771 110.01 14.1302 110.062 12.7344L108.359 12.4375C108.224 11.9167 108.13 11.4583 108.078 11.0625C108.026 10.6667 108 10.2448 108 9.79688L108.031 9.48438C108.062 9.33854 108.078 9.21875 108.078 9.125L110.344 8.625C110.396 7.97917 110.516 7.25 110.703 6.4375C110.891 5.625 111.089 5.02604 111.297 4.64062C111.63 4.39062 112.031 4.20312 112.5 4.07812C112.969 3.95312 113.474 3.89062 114.016 3.89062C114.474 3.89062 114.917 3.9375 115.344 4.03125C115.781 4.11458 116.161 4.22917 116.484 4.375C116.516 4.72917 116.531 5.13542 116.531 5.59375C116.531 6.34375 116.495 7.19271 116.422 8.14062L119.172 7.64062C119.557 8.30729 119.75 9.03125 119.75 9.8125C119.75 10.3542 119.682 10.8438 119.547 11.2812C119.422 11.7188 119.245 12.2135 119.016 12.7656C118.328 12.8802 117.385 12.9531 116.188 12.9844C116.042 14.6823 115.719 17.1771 115.219 20.4688L115.141 21L115.172 21.0312L118.844 19.8906C119.604 20.526 120.068 21.5052 120.234 22.8281C120.234 22.901 119.896 23.2448 119.219 23.8594C118.552 24.4635 117.714 25.026 116.703 25.5469C115.693 26.0573 114.594 26.3125 113.406 26.3125C111.333 26.3125 110.229 25.0469 110.094 22.5156C110.021 21.2344 109.984 19.5208 109.984 17.375ZM122.25 15.8438C122.25 11.0104 122.344 7.6875 122.531 5.875L120.766 5.5625C120.516 4.60417 120.391 3.57292 120.391 2.46875C120.547 2.27083 120.839 2.02604 121.266 1.73438C121.693 1.44271 122.188 1.1875 122.75 0.96875C123.323 0.75 123.891 0.640625 124.453 0.640625C125.734 0.640625 126.688 0.96875 127.312 1.625C127.938 2.28125 128.25 3.28646 128.25 4.64062C128.25 5.23438 128.198 6.19271 128.094 7.51562C127.99 8.82812 127.839 10.2396 127.641 11.75C127.443 13.25 127.214 14.5885 126.953 15.7656C126.953 15.8281 126.99 15.8854 127.062 15.9375C127.135 15.9896 127.214 16.0156 127.297 16.0156C127.391 16.0156 127.453 15.9792 127.484 15.9062C127.901 14.25 128.318 12.8646 128.734 11.75C129.151 10.6354 129.781 9.64583 130.625 8.78125C131.469 7.91667 132.562 7.48438 133.906 7.48438C135.573 7.48438 136.771 7.99479 137.5 9.01562C138.229 10.026 138.594 11.3021 138.594 12.8438C138.594 14.2188 138.432 15.5469 138.109 16.8281C137.786 18.099 137.385 19.4271 136.906 20.8125C136.927 20.7604 136.854 20.9635 136.688 21.4219L136.719 21.4531L139.031 20.4844C139.844 21.1823 140.318 22.1094 140.453 23.2656C140.453 23.3385 140.219 23.6406 139.75 24.1719C139.281 24.6927 138.661 25.1823 137.891 25.6406C137.13 26.0885 136.255 26.3125 135.266 26.3125C134.276 26.3125 133.469 26.0469 132.844 25.5156C132.219 24.9844 131.906 24.0781 131.906 22.7969C131.906 21.776 131.948 20.4115 132.031 18.7031C132.115 16.9948 132.198 15.6198 132.281 14.5781C132.01 14.2865 131.677 14.1302 131.281 14.1094C130.917 14.5781 130.38 15.5156 129.672 16.9219C128.964 18.3281 128.464 19.3802 128.172 20.0781C128.151 20.224 128.141 20.3646 128.141 20.5C128.141 21.0208 128.219 21.724 128.375 22.6094C128.531 23.4844 128.724 24.3021 128.953 25.0625C128.766 25.4167 128.38 25.7135 127.797 25.9531C127.214 26.1927 126.495 26.3125 125.641 26.3125C124.87 26.3125 124.25 26.25 123.781 26.125C123.323 26 123 25.8698 122.812 25.7344C122.625 25.5885 122.531 25.5 122.531 25.4688C122.521 25.375 122.495 25.1302 122.453 24.7344C122.411 24.3281 122.37 23.7656 122.328 23.0469C122.286 22.3177 122.266 21.4896 122.266 20.5625L122.25 15.8438Z" fill="#0F89CD"/>
</svg>
